<?xml version="1.0" standalone="no"?>
<!DOCTYPE svg PUBLIC "-//W3C//DTD SVG 20010904//EN"
 "http://www.w3.org/TR/2001/REC-SVG-20010904/DTD/svg10.dtd">
<svg version="1.0" xmlns="http://www.w3.org/2000/svg"
 width="326.000000pt" height="37.000000pt" viewBox="0 0 326.000000 37.000000"
 preserveAspectRatio="xMidYMid meet">
<metadata>
Created by potrace 1.16, written by Peter Selinger 2001-2019
</metadata>
<g transform="translate(0.000000,37.000000) scale(0.100000,-0.100000)"
fill="#000000" stroke="none">
<path d="M1105 240 c-27 -10 -64 -24 -82 -31 -26 -11 -42 -11 -85 0 -69 16
-63 16 -272 3 -98 -7 -237 -12 -310 -13 -193 -2 -96 -15 169 -23 121 -4 249
-11 285 -15 49 -6 74 -4 100 7 49 20 87 17 155 -13 38 -17 84 -29 125 -32 60
-5 68 -3 106 25 38 28 42 29 69 14 26 -13 32 -13 62 3 18 10 33 21 33 25 0 4
-15 15 -34 25 -29 16 -38 17 -64 6 -26 -11 -33 -10 -67 13 -47 32 -116 34
-190 6z m184 -19 c17 -12 31 -26 31 -30 0 -4 -15 -18 -32 -32 -27 -20 -44 -24
-93 -23 -59 1 -175 37 -175 53 0 8 89 44 135 55 39 9 104 -2 134 -23z"/>
<path d="M1595 235 c-22 -13 -57 -27 -77 -30 -53 -9 -55 -21 -5 -29 23 -4 60
-18 83 -31 l41 -24 49 25 c26 13 65 27 86 30 45 8 42 19 -9 29 -21 3 -57 17
-80 31 -23 13 -43 24 -45 23 -2 0 -21 -11 -43 -24z"/>
<path d="M1986 235 c-35 -24 -42 -25 -68 -14 -26 11 -35 10 -64 -6 -19 -10
-34 -21 -34 -25 0 -4 15 -15 33 -25 31 -16 35 -16 64 -2 28 15 32 15 44 1 44
-53 152 -57 255 -9 67 30 105 33 154 13 26 -11 51 -13 100 -7 36 4 164 11 285
15 321 10 338 19 50 28 -137 4 -283 11 -322 15 -54 6 -83 5 -110 -5 -56 -20
-94 -17 -159 12 -36 16 -84 28 -124 31 -58 4 -69 2 -104 -22z m219 -16 c30
-11 55 -24 55 -29 0 -17 -115 -53 -175 -54 -49 -1 -66 3 -93 24 -18 13 -31 29
-29 35 2 5 21 20 43 33 46 27 110 24 199 -9z"/>
</g>
</svg>
